<?xml version="1.0" encoding="iso-8859-1"?>
<!-- Uploaded to: SVG Repo, www.svgrepo.com, Generator: SVG Repo Mixer Tools -->
<svg height="800px" width="800px" version="1.1" id="Layer_1" xmlns="http://www.w3.org/2000/svg" xmlns:xlink="http://www.w3.org/1999/xlink" 
	 viewBox="0 0 512 512" xml:space="preserve">
<circle style="fill:#4DE1FF;" cx="256" cy="256" r="256"/>
<path style="fill:#0C8FAA;" d="M40.267,309.451C64.275,406.287,151.892,478.242,256,478.242s191.725-71.955,215.733-168.791
	L256,286.945L40.267,309.451z"/>
<polygon style="fill:#7FB21E;" points="471.634,309.451 362.268,120.023 252.754,309.451 "/>
<polygon style="fill:#9FC657;" points="348.832,309.451 252.796,143.112 194.664,64.928 136.417,143.172 40.287,309.451 "/>
<path style="fill:#FFFFFF;" d="M194.559,42.423l-58.161,100.738l29.094,21.525l29.064-21.504l29.068,21.504l29.096-21.525
	C220.511,87.373,194.559,42.423,194.559,42.423z"/>
<circle style="fill:#FF984C;" cx="301.9" cy="73.188" r="33.758"/>
<g>
	<circle style="fill:#7FB21E;" cx="194.628" cy="244.398" r="8.44"/>
	<circle style="fill:#7FB21E;" cx="165.562" cy="209.639" r="8.44"/>
</g>
</svg>